<svg width="24" height="24" viewBox="0 0 24 24" fill="none" xmlns="http://www.w3.org/2000/svg">
<path d="M11.04 17.28C7.58399 17.28 4.79999 14.496 4.79999 11.04C4.79999 7.58399 7.58399 4.79999 11.04 4.79999C14.496 4.79999 17.28 7.58399 17.28 11.04C17.28 14.496 14.496 17.28 11.04 17.28ZM11.04 5.75999C8.11199 5.75999 5.75999 8.11199 5.75999 11.04C5.75999 13.968 8.11199 16.32 11.04 16.32C13.968 16.32 16.32 13.968 16.32 11.04C16.32 8.11199 13.968 5.75999 11.04 5.75999Z" fill="white"/>
<path d="M15.6874 15.0081L19.9978 19.3185L19.3191 19.9973L15.0087 15.6869L15.6874 15.0081Z" fill="white"/>
</svg>
