<svg width="25" height="25" viewBox="0 0 25 25" fill="none" xmlns="http://www.w3.org/2000/svg">
<path d="M17.5 0H7.5C3.36375 0 0 3.36375 0 7.5V23.75C0 24.0815 0.131696 24.3995 0.366116 24.6339C0.600537 24.8683 0.918479 25 1.25 25H17.5C21.6363 25 25 21.6363 25 17.5V7.5C25 3.36375 21.6363 0 17.5 0ZM22.5 17.5C22.5 20.2575 20.2575 22.5 17.5 22.5H2.5V7.5C2.5 4.7425 4.7425 2.5 7.5 2.5H17.5C20.2575 2.5 22.5 4.7425 22.5 7.5V17.5Z" fill="#3337CC"/>
<path d="M6.25 16.2338V18.7325H8.74875L15.66 11.83L13.1625 9.3325L6.25 16.2338ZM16.8375 10.6525L14.34 8.1525L16.2437 6.25L18.7438 8.74875L16.8375 10.6525Z" fill="white"/>
</svg>
