<svg width="24" height="24" viewBox="0 0 24 24" fill="none" xmlns="http://www.w3.org/2000/svg">
<path d="M12 0.480011C5.63639 0.480011 0.47879 5.63761 0.47879 12C0.478633 13.513 0.77653 15.0113 1.35547 16.4092C1.93441 17.8071 2.78305 19.0772 3.85292 20.1471C4.92279 21.217 6.19294 22.0656 7.59083 22.6445C8.98872 23.2235 10.487 23.5214 12 23.5212C18.3612 23.5212 23.52 18.3636 23.52 12C23.52 5.63761 18.3612 0.480011 12 0.480011ZM13.0752 4.63921C14.1984 4.63921 14.5284 5.29081 14.5284 6.03601C14.5284 6.96601 13.7844 7.82641 12.5136 7.82641C11.4504 7.82641 10.944 7.29241 10.9752 6.40801C10.9752 5.66281 11.598 4.63921 13.0752 4.63921ZM10.1976 18.9C9.42959 18.9 8.86919 18.4332 9.40559 16.3872L10.2852 12.7572C10.4376 12.1764 10.4628 11.9436 10.2852 11.9436C10.056 11.9436 9.05879 12.3444 8.47079 12.7404L8.08799 12.1128C9.95399 10.554 12.0996 9.63961 13.0176 9.63961C13.7856 9.63961 13.9128 10.5468 13.53 11.9436L12.522 15.7596C12.3432 16.434 12.42 16.6668 12.5988 16.6668C12.8292 16.6668 13.5828 16.3884 14.3244 15.804L14.7588 16.3872C12.9432 18.2016 10.9644 18.9 10.1976 18.9Z" fill="#2B2B36"/>
</svg>
